<?xml version="1.0" standalone="no"?>
<!DOCTYPE svg PUBLIC "-//W3C//DTD SVG 20010904//EN"
 "http://www.w3.org/TR/2001/REC-SVG-20010904/DTD/svg10.dtd">
<svg version="1.0" xmlns="http://www.w3.org/2000/svg"
 width="640.000000pt" height="1280.000000pt" viewBox="0 0 640.000000 1280.000000"
 preserveAspectRatio="xMidYMid meet">
<metadata>
Created by potrace 1.15, written by Peter Selinger 2001-2017
</metadata>
<g transform="translate(0.000000,1280.000000) scale(0.100000,-0.100000)"
fill="#000000" stroke="none">
<path d="M2920 12785 c0 -3 20 -46 45 -95 204 -406 383 -909 435 -1225 l12
-70 -76 -113 c-41 -62 -76 -117 -78 -122 -2 -5 -70 57 -153 138 -82 81 -190
181 -240 223 -103 86 -322 259 -329 259 -3 0 5 -26 16 -57 18 -49 22 -81 22
-203 1 -130 -2 -154 -26 -232 -33 -107 -81 -221 -189 -443 l-82 -170 -13 44
c-8 24 -14 68 -15 97 -1 30 -3 54 -4 54 -9 0 -134 -226 -183 -330 -161 -338
-228 -628 -202 -882 29 -291 128 -562 281 -769 33 -44 59 -81 59 -84 0 -3 -18
-5 -40 -5 l-40 0 0 -393 0 -394 250 -192 c138 -106 250 -195 250 -199 0 -4 5
-47 10 -97 37 -353 48 -455 60 -600 29 -328 40 -486 40 -555 0 -66 5 -85 35
-149 l35 -74 10 -561 c5 -308 14 -833 20 -1166 21 -1247 30 -1811 40 -2375 6
-319 13 -845 15 -1170 6 -793 9 -807 153 -851 114 -34 374 -26 467 15 97 43
105 95 110 801 2 311 9 831 15 1155 5 325 14 860 20 1190 15 915 29 1729 40
2377 l10 587 35 73 c30 61 35 83 35 143 0 130 53 741 106 1212 l5 52 250 192
249 192 0 394 0 393 -35 0 c-19 0 -35 2 -35 5 0 3 16 26 36 52 146 192 221
539 195 901 -13 168 -22 236 -58 412 -14 69 -28 137 -30 153 -9 48 -19 38 -39
-41 l-19 -77 -6 185 c-13 380 -92 672 -282 1044 -169 331 -432 675 -756 989
-154 149 -431 382 -431 362z"/>
</g>
</svg>
